<svg width="1329" height="279" viewBox="0 0 1329 279" fill="none" xmlns="http://www.w3.org/2000/svg">
<path d="M683.948 159.888L688.248 168.488C686.643 171.928 684.407 175.368 681.54 178.808C678.673 182.133 675.692 185.115 672.596 187.752L628.564 183.452L621.512 187.752C616.696 186.032 612.969 183.452 610.332 180.012L617.04 127.208L614.976 64.6L619.964 61.16C621.225 61.3893 622.945 62.02 625.124 63.052C627.417 64.084 629.653 65.2307 631.832 66.492C634.011 67.7533 635.616 68.9573 636.648 70.104L634.756 129.444V166.768L683.948 159.888ZM770.193 157.996C770.995 159.028 771.855 161.035 772.773 164.016C773.805 166.997 774.263 169.635 774.149 171.928C769.218 173.992 764.058 176.056 758.669 178.12C753.279 180.069 748.234 181.904 743.533 183.624C738.946 185.344 735.162 186.72 732.181 187.752C728.626 186.835 724.899 185.401 721.001 183.452C717.102 181.503 713.547 179.209 710.337 176.572C707.126 173.82 704.833 171.068 703.457 168.316L705.865 115.684C707.47 112.817 709.706 109.951 712.573 107.084C715.554 104.103 718.478 101.408 721.345 99C727.995 97.5093 734.474 96.592 740.781 96.248C747.202 95.904 753.337 96.1907 759.185 97.108C760.217 97.6813 761.593 98.9427 763.313 100.892C765.147 102.727 766.925 104.619 768.645 106.568C770.365 108.517 771.511 109.951 772.085 110.868L771.397 136.496C768.415 138.675 764.402 140.968 759.357 143.376C754.311 145.784 748.75 148.135 742.673 150.428C736.595 152.607 730.518 154.556 724.441 156.276C724.555 158.455 724.727 160.576 724.957 162.64C725.186 164.704 725.473 166.711 725.817 168.66L770.193 157.996ZM752.993 114.824C748.865 114.251 744.851 114.079 740.953 114.308C737.054 114.537 732.983 115.225 728.741 116.372C727.594 119.927 726.677 123.768 725.989 127.896C725.301 132.024 724.785 136.209 724.441 140.452C729.371 138.847 734.531 136.783 739.921 134.26C745.425 131.623 750.413 128.871 754.885 126.004L752.993 114.824ZM876.274 162.812C877.306 164.188 878.338 166.137 879.37 168.66C880.402 171.183 881.032 173.763 881.262 176.4L858.042 187.752C855.29 186.949 852.308 185.631 849.098 183.796C846.002 181.961 843.651 180.299 842.046 178.808L842.734 166.252C837 172.559 831.21 177.604 825.362 181.388C819.514 185.172 814.411 187.293 810.054 187.752C808.334 186.835 806.212 185.229 803.69 182.936C801.282 180.528 798.988 177.891 796.81 175.024C794.746 172.043 793.37 169.233 792.682 166.596L796.294 119.124C798.014 115.455 800.479 111.785 803.69 108.116C806.9 104.332 810.111 101.293 813.322 99C821.578 97.5093 829.604 96.6493 837.402 96.42C845.199 96.076 853.799 97.3947 863.202 100.376C864.463 101.752 865.61 103.415 866.642 105.364C867.674 107.313 868.534 109.205 869.222 111.04C870.024 112.76 870.483 114.079 870.598 114.996C869.451 120.041 867.903 124.972 865.954 129.788C864.119 134.604 861.883 139.191 859.246 143.548L861.31 166.596L876.274 162.812ZM816.418 166.768C820.546 165.277 825.075 162.067 830.006 157.136C835.051 152.205 839.638 146.357 843.766 139.592L844.454 113.62C839.752 113.505 835.223 113.735 830.866 114.308C826.508 114.881 822.38 115.741 818.482 116.888C816.418 122.621 814.927 128.469 814.01 134.432C813.207 140.28 812.806 145.727 812.806 150.772C812.92 155.703 813.322 159.659 814.01 162.64C814.698 165.621 815.5 166.997 816.418 166.768ZM951.768 96.248C954.405 97.624 956.928 100.204 959.336 103.988C961.859 107.657 963.636 111.499 964.668 115.512L963.12 137.012C961.171 138.388 958.705 139.42 955.724 140.108C952.743 140.681 949.991 141.025 947.468 141.14L943.34 137.184C943.913 132.941 944.257 129.215 944.372 126.004C944.601 122.679 944.487 119.755 944.028 117.232C940.473 119.869 937.148 123.711 934.052 128.756C931.071 133.687 928.319 139.191 925.796 145.268L926.312 185C923.789 185.688 920.865 186.032 917.54 186.032C914.215 186.032 911.233 185.688 908.596 185C905.041 181.216 902.117 176.916 899.824 172.1C900.627 168.316 901.773 164.303 903.264 160.06C904.755 155.703 906.475 151.403 908.424 147.16V140.968L906.36 117.232L891.396 121.016C890.593 119.64 889.619 117.748 888.472 115.34C887.325 112.817 886.637 110.237 886.408 107.6L909.628 96.248C910.775 96.3627 912.38 96.9933 914.444 98.14C916.623 99.2867 918.744 100.548 920.808 101.924C922.987 103.185 924.592 104.275 925.624 105.192L924.936 118.78C929.637 112.244 934.396 106.855 939.212 102.612C944.028 98.3693 948.213 96.248 951.768 96.248ZM1077.58 162.812C1078.61 164.188 1079.64 166.137 1080.68 168.66C1081.71 171.183 1082.34 173.763 1082.57 176.4L1059.35 187.752C1056.37 186.261 1053.21 184.312 1049.89 181.904C1046.56 179.496 1043.93 176.859 1041.98 173.992C1044.04 166.768 1045.42 159.487 1046.1 152.148C1046.79 144.809 1046.96 137.987 1046.62 131.68C1046.39 125.259 1045.76 120.041 1044.73 116.028C1041.86 117.289 1038.77 119.525 1035.44 122.736C1032.23 125.832 1029.02 129.559 1025.81 133.916C1022.6 138.273 1019.62 142.975 1016.86 148.02L1015.83 185C1013.31 185.688 1010.39 186.032 1007.06 186.032C1003.74 186.032 1000.75 185.688 998.117 185C994.562 181.216 991.638 176.916 989.345 172.1C990.377 166.94 991.753 161.952 993.473 157.136C995.307 152.32 997.314 147.791 999.493 143.548L999.665 140.968L997.601 117.232L982.637 121.016C981.834 119.64 980.859 117.748 979.713 115.34C978.566 112.817 977.878 110.237 977.649 107.6L1000.87 96.248C1002.02 96.3627 1003.62 96.9933 1005.68 98.14C1007.86 99.2867 1009.98 100.548 1012.05 101.924C1014.23 103.185 1015.83 104.275 1016.86 105.192L1016.18 119.64C1022.6 112.301 1029.02 106.568 1035.44 102.44C1041.98 98.312 1047.37 96.248 1051.61 96.248C1053.33 97.1653 1055.22 98.7707 1057.28 101.064C1059.35 103.357 1061.24 105.937 1062.96 108.804C1064.68 111.556 1065.88 114.308 1066.57 117.06L1063.65 166.424L1077.58 162.812ZM1117.99 86.444C1112.03 83.2333 1106.64 78.9907 1101.83 73.716C1101.94 71.8813 1102.69 69.8173 1104.06 67.524C1105.55 65.116 1107.27 62.9373 1109.22 60.988C1111.29 58.924 1113.24 57.6627 1115.07 57.204C1116.9 57.204 1118.97 57.9493 1121.26 59.44C1123.56 60.816 1125.68 62.536 1127.63 64.6C1129.58 66.5493 1130.72 68.4413 1131.07 70.276C1130.95 72.2253 1130.15 74.404 1128.66 76.812C1127.17 79.1053 1125.45 81.1693 1123.5 83.004C1121.55 84.724 1119.71 85.8707 1117.99 86.444ZM1136.91 161.952C1137.72 163.328 1138.69 165.449 1139.84 168.316C1140.98 171.068 1141.67 173.763 1141.9 176.4L1118.68 187.752C1109.97 183.739 1104 178.579 1100.79 172.272L1104.41 118.264L1091.85 122.048C1091.05 120.672 1090.07 118.608 1088.93 115.856C1087.78 112.989 1087.09 110.237 1086.86 107.6L1110.08 96.248C1111.23 96.3627 1112.89 96.9933 1115.07 98.14C1117.25 99.2867 1119.37 100.548 1121.43 101.924C1123.61 103.3 1125.28 104.447 1126.42 105.364L1121.61 143.204V166.596L1136.91 161.952ZM1218.75 47.744C1219.56 51.872 1219.27 55.828 1217.89 59.612C1216.63 63.2813 1214.74 66.2053 1212.22 68.384C1209.81 67.5813 1206.77 66.836 1203.1 66.148C1199.43 65.46 1195.59 65.0587 1191.58 64.944C1187.56 64.7147 1183.84 65.0013 1180.4 65.804L1187.96 98.14C1191.52 97.9107 1195.07 97.796 1198.63 97.796C1202.18 97.796 1205.85 97.968 1209.64 98.312L1211.36 112.072L1206.02 117.576C1202.47 117.347 1199.09 117.175 1195.88 117.06C1192.67 116.945 1189.57 116.888 1186.59 116.888L1185.56 185.344L1175.92 187.752C1169.96 184.771 1164.97 179.611 1160.96 172.272L1170.08 118.608L1154.25 121.704L1149.95 110.008L1168.18 94.528L1159.58 69.244C1160.27 67.868 1161.42 66.0907 1163.02 63.912C1164.63 61.7333 1166.41 59.44 1168.36 57.032C1170.42 54.624 1172.43 52.56 1174.38 50.84C1176.33 49.0053 1178.05 47.8587 1179.54 47.4C1183.21 46.1387 1187.33 45.336 1191.92 44.992C1196.62 44.5333 1201.32 44.5333 1206.02 44.992C1210.84 45.4507 1215.08 46.368 1218.75 47.744ZM1312.34 111.9C1312 116.028 1311.03 120.385 1309.42 124.972C1307.82 129.559 1305.69 134.145 1303.06 138.732L1305.46 195.32C1304.32 197.843 1302.6 200.767 1300.3 204.092C1298.13 207.417 1295.66 210.628 1292.91 213.724C1290.27 216.82 1287.63 219.285 1285 221.12C1279.84 222.496 1274.22 223.413 1268.14 223.872C1262.18 224.445 1256.16 224.56 1250.08 224.216C1244.12 223.872 1238.56 223.241 1233.4 222.324C1233.28 220.489 1233.34 218.196 1233.57 215.444C1233.8 212.807 1234.14 210.169 1234.6 207.532C1235.17 204.895 1235.86 202.773 1236.66 201.168C1240.45 202.544 1244.86 203.576 1249.91 204.264C1254.95 205.067 1260.06 205.468 1265.22 205.468C1270.49 205.468 1275.31 205.181 1279.66 204.608C1282.3 198.531 1284.25 192.109 1285.51 185.344C1286.89 178.579 1287.69 170.437 1287.92 160.92C1283.68 165.965 1279.26 170.552 1274.68 174.68C1270.2 178.693 1266.02 181.904 1262.12 184.312C1258.22 186.605 1254.9 187.752 1252.14 187.752C1250.42 186.835 1248.13 185.229 1245.26 182.936C1242.51 180.643 1239.93 178.063 1237.52 175.196C1235.12 172.329 1233.57 169.577 1232.88 166.94L1236.84 117.92L1224.11 121.188C1223.08 119.812 1222.04 117.863 1221.01 115.34C1219.98 112.817 1219.35 110.237 1219.12 107.6L1242.34 96.248C1245.32 97.7387 1248.48 99.688 1251.8 102.096C1255.24 104.504 1257.88 107.141 1259.71 110.008C1257.65 117.117 1256.16 124.399 1255.24 131.852C1254.44 139.191 1254.09 146.071 1254.21 152.492C1254.32 158.799 1254.78 164.016 1255.58 168.144C1258.8 166.768 1262.18 164.417 1265.73 161.092C1269.4 157.652 1272.96 153.524 1276.4 148.708C1279.95 143.892 1283.1 138.732 1285.86 133.228L1284.14 100.72C1286.77 100.032 1290.04 99.4013 1293.94 98.828C1297.84 98.2547 1301.05 98.312 1303.57 99C1307.24 102.784 1310.17 107.084 1312.34 111.9Z" fill="black"/>
<path d="M216.819 23.6343C220.282 29.4445 223.554 231.424 219.795 243.561C225.423 238.974 271.78 210.021 313.382 209.048C359.541 207.969 404.98 228.49 408.694 226.871C412.408 225.252 397.022 23.4413 394.899 20.7433C392.777 18.0453 366.249 4.5553 303.642 4.0157C241.035 3.4761 213.261 17.6656 216.819 23.6343Z" fill="#F0E0CC"/>
<path d="M244.218 60.6739C244.218 60.6739 267.563 55.2778 305.764 55.8174C343.965 56.357 368.902 60.6739 368.902 60.6739M247.932 88.7331C247.932 88.7331 273.4 84.9559 296.745 84.4163C320.09 83.8767 343.435 86.5747 343.435 86.5747M250.585 113.555C296.457 108.7 321.651 108.777 365.718 113.555M250.585 144.852C291.29 139.652 301.933 135.402 368.902 144.852M250.585 171.292C297.704 162.962 324.67 163.575 373.677 173.451M219.795 243.561C223.554 231.424 220.282 29.4445 216.819 23.6343C213.261 17.6656 241.035 3.4761 303.642 4.0157C366.249 4.5553 392.777 18.0453 394.899 20.7433C397.022 23.4413 412.408 225.252 408.694 226.871C404.98 228.49 359.541 207.969 313.382 209.048C271.78 210.021 225.423 238.974 219.795 243.561ZM219.795 243.561C219.179 244.063 219.051 244.274 219.472 244.123C219.585 244.082 219.693 243.892 219.795 243.561Z" stroke="black" stroke-width="7"/>
<path d="M213.399 22.8055C144.409 -1.53297 104.989 -1.66022 33.537 19.0283C33.537 19.0283 29.2925 226.129 33.537 229.473L35.6351 229.521C41.9978 227.072 59.7273 208.29 117.367 211.126C151.376 212.8 175.177 224.279 191.115 232.816C206.01 240.795 214.038 246.205 217.113 238.646C223.48 222.998 213.399 22.8055 213.399 22.8055Z" fill="#F0E0CC"/>
<path d="M191.115 232.816C175.177 224.279 151.376 212.8 117.367 211.126C59.7273 208.29 41.9978 227.072 35.6351 229.521C82.306 230.593 116.445 231.319 191.115 232.816Z" fill="#2DA2B7"/>
<path d="M33.537 229.473C29.2925 226.129 33.537 19.0283 33.537 19.0283C104.989 -1.66022 144.409 -1.53297 213.399 22.8055C213.399 22.8055 223.48 222.998 217.113 238.646C214.038 246.205 206.01 240.795 191.115 232.816M33.537 229.473C34.2393 229.489 34.9386 229.505 35.6351 229.521M33.537 229.473C34.0629 229.887 34.7353 229.867 35.6351 229.521M33.537 229.473L35.6351 229.521M191.115 232.816C175.177 224.279 151.376 212.8 117.367 211.126C59.7273 208.29 41.9978 227.072 35.6351 229.521M191.115 232.816C116.445 231.319 82.306 230.593 35.6351 229.521" stroke="black" stroke-width="6"/>
<path d="M186.096 151.429L191.394 161.703C189.416 165.813 186.661 169.922 183.13 174.032C179.598 178.005 175.925 181.566 172.111 184.717L117.863 179.58L109.175 184.717C103.241 182.662 98.6499 179.58 95.4007 175.47L103.665 112.387L101.122 37.5902L107.267 33.4805C108.821 33.7545 110.94 34.5079 113.625 35.7409C116.45 36.9738 119.205 38.3437 121.889 39.8506C124.573 41.3574 126.551 42.7958 127.822 44.1657L125.491 115.058V159.648L186.096 151.429Z" fill="black"/>
<g style="mix-blend-mode:darken">
<path fill-rule="evenodd" clip-rule="evenodd" d="M34.096 28.323C34.096 28.323 11.2816 25.8183 5.97594 31.2143C0.670279 36.6103 2.26197 249.213 12.3428 255.688C18.7104 259.779 78.0019 258.409 122.154 257.389C147.9 256.795 168.498 256.319 170.452 257.114C171.558 257.564 173.057 258.648 175.04 260.081C182.563 265.522 197.054 276 223.509 276C245.945 276 255.712 267.866 262.437 262.266C265.73 259.523 268.294 257.388 271.26 257.114C273.927 256.867 288.886 256.908 308.774 256.962C356.143 257.092 431.468 257.297 435.205 253.876C440.511 249.02 427.777 36.417 421.941 33.719C416.105 31.021 395.943 33.719 395.943 33.719L404.109 136.742L407.615 229.055C384.808 231.375 357.441 230.707 331.208 230.068C293.294 229.143 257.748 228.276 241.755 236.568C218.533 248.609 214.85 246.341 204.546 239.999C202.844 238.951 200.961 237.792 198.779 236.568C190.728 232.051 160.742 232.457 126.273 232.924C94.869 233.349 59.744 233.825 34.096 230.674C30.1651 150.021 30.26 105.755 34.096 28.323Z" fill="#30B0C7"/>
<path d="M407.615 229.055C330.429 200.314 293.925 201.475 241.755 236.568C257.748 228.276 293.294 229.143 331.208 230.068C357.441 230.707 384.808 231.375 407.615 229.055Z" fill="#2DA2B7"/>
<path d="M407.615 229.055L404.109 136.742L395.943 33.719C395.943 33.719 416.105 31.021 421.941 33.719C427.777 36.417 440.511 249.02 435.205 253.876C431.468 257.297 356.143 257.092 308.774 256.962C288.886 256.908 273.927 256.867 271.26 257.114C268.294 257.388 265.73 259.523 262.437 262.266C255.712 267.866 245.945 276 223.509 276C197.054 276 182.563 265.522 175.04 260.081C173.057 258.648 171.558 257.564 170.452 257.114C168.498 256.319 147.9 256.795 122.154 257.389C78.0019 258.409 18.7104 259.779 12.3428 255.688C2.26197 249.213 0.670279 36.6103 5.97594 31.2143C11.2816 25.8183 34.096 28.323 34.096 28.323C30.26 105.755 30.1651 150.021 34.096 230.674C59.744 233.825 94.869 233.349 126.273 232.924C160.742 232.457 190.728 232.051 198.779 236.568C200.961 237.792 202.844 238.951 204.546 239.999C214.85 246.341 218.533 248.609 241.755 236.568M407.615 229.055C330.429 200.314 293.925 201.475 241.755 236.568M407.615 229.055C384.808 231.375 357.441 230.707 331.208 230.068C293.294 229.143 257.748 228.276 241.755 236.568" stroke="black" stroke-width="6"/>
</g>
</svg>
